<svg width="829" height="273" viewBox="0 0 829 273" fill="none" xmlns="http://www.w3.org/2000/svg">
<g clip-path="url(#clip0_461_1426)">
<path d="M591.485 202.291V202.175H593.963V202.455C593.963 207.807 597.117 209.78 604.613 209.78C611.487 209.78 613.965 208.087 613.965 204.373C613.965 200.994 611.938 199.813 606.866 199.021L599.595 197.95C594.748 197.219 591.485 195.417 591.485 190.85C591.485 185.948 596.332 183.19 603.316 183.19C610.866 183.19 616.047 186.46 616.047 192.877V192.987H613.569V192.707C613.569 187.921 610.982 185.327 603.261 185.327C596.783 185.327 593.963 186.959 593.963 190.85C593.963 194.12 595.656 195.301 600.612 196.031L607.651 197.103C613.057 197.895 616.436 199.806 616.436 204.257C616.436 209.493 611.31 211.978 604.606 211.978C596.38 211.978 591.479 208.654 591.479 202.291H591.485Z" fill="white"/>
<path d="M622.3 220.995V218.687H625.625C628.669 218.687 629.796 217.732 631.031 215.192L632.834 211.308L619.03 183.763H621.734L630.635 201.505L633.96 208.379H634.185L637.455 201.505L645.961 183.763H648.61L633.175 215.93C631.427 219.65 629.175 221.002 625.461 221.002H622.307L622.3 220.995Z" fill="white"/>
<path d="M651.539 202.291V202.175H654.017V202.455C654.017 207.807 657.171 209.78 664.667 209.78C671.541 209.78 674.019 208.087 674.019 204.373C674.019 200.994 671.992 199.813 666.919 199.021L659.649 197.95C654.802 197.219 651.539 195.417 651.539 190.85C651.539 185.948 656.386 183.19 663.37 183.19C670.92 183.19 676.101 186.46 676.101 192.877V192.987H673.623V192.707C673.623 187.921 671.036 185.327 663.315 185.327C656.836 185.327 654.017 186.959 654.017 190.85C654.017 194.12 655.71 195.301 660.666 196.031L667.704 197.103C673.111 197.895 676.49 199.806 676.49 204.257C676.49 209.493 671.363 211.978 664.66 211.978C656.434 211.978 651.532 208.654 651.532 202.291H651.539Z" fill="white"/>
<path d="M692.772 211.416C687.646 211.416 684.266 209.389 684.266 203.026V185.96H679.14V183.762H684.266V176.662H686.799V183.762H698.459V185.96H686.799V203.648C686.799 207.928 688.997 209.109 693.394 209.109H698.466V211.416H692.779H692.772Z" fill="white"/>
<path d="M701.729 197.557C701.729 189.331 707.135 183.194 716.037 183.194C723.758 183.194 729.444 187.816 729.444 195.926C729.444 196.943 729.328 197.844 729.165 198.459H704.152C704.377 205.333 707.982 209.784 715.982 209.784C723.082 209.784 726.57 207.026 726.57 202.404V202.063H729.049V202.404C729.049 208.091 723.362 211.982 716.037 211.982C707.19 211.982 701.729 205.954 701.729 197.564V197.557ZM704.152 196.656H727.076C727.13 196.206 727.13 195.81 727.13 195.359C727.13 188.881 722.959 185.331 715.976 185.331C707.975 185.331 704.37 189.782 704.145 196.656H704.152Z" fill="white"/>
<path d="M735.301 211.418V183.757H737.499V192.038H737.67C738.461 187.361 741.841 183.19 748.708 183.19C754.852 183.19 758.395 186.966 759.358 192.427H759.583C760.368 187.641 763.863 183.19 770.738 183.19C778.008 183.19 781.838 188.426 781.838 195.642V211.418H779.36V195.478C779.36 188.775 776.376 185.45 770.178 185.45C762.969 185.45 759.815 189.956 759.815 198.182V211.418H757.337V195.478C757.337 188.775 754.354 185.45 748.21 185.45C740.885 185.45 737.847 189.956 737.847 198.182V211.418H735.314H735.301Z" fill="white"/>
<path d="M787.635 202.291V202.175H790.113V202.455C790.113 207.807 793.267 209.78 800.762 209.78C807.637 209.78 810.115 208.087 810.115 204.373C810.115 200.994 808.087 199.813 803.015 199.021L795.752 197.95C790.905 197.219 787.642 195.417 787.642 190.85C787.642 185.948 792.489 183.19 799.472 183.19C807.022 183.19 812.204 186.46 812.204 192.877V192.987H809.726V192.707C809.726 187.921 807.131 185.327 799.417 185.327C792.939 185.327 790.12 186.959 790.12 190.85C790.12 194.12 791.806 195.301 796.769 196.031L803.814 197.103C809.22 197.895 812.6 199.806 812.6 204.257C812.6 209.493 807.473 211.978 800.769 211.978C792.543 211.978 787.642 208.654 787.642 202.291H787.635Z" fill="white"/>
<path d="M293.102 162.274C271.114 162.274 260 155.488 260 141.917V135.718C260 122.031 271.114 115.361 293.102 115.361H343.168V115.245C343.168 110.801 337.557 107.996 324.45 107.996H313.452C309.943 107.996 309.124 106.009 309.124 102.145C309.124 98.2813 309.943 96.1787 313.452 96.1787H324.914C346.902 96.1787 358.016 102.848 358.016 116.536V141.917C358.016 155.488 346.902 162.274 324.914 162.274H293.095H293.102ZM343.168 141.917V126.707H293.573C280.473 126.707 274.855 130.448 274.855 135.247V141.917C274.855 146.593 280.466 150.457 293.573 150.457H324.457C337.557 150.457 343.175 146.593 343.175 141.917H343.168Z" fill="white"/>
<path d="M489.155 157.246V116.54C489.155 111.74 484.472 107.999 471.371 107.999H464.818C451.834 107.999 447.854 111.74 447.854 116.54V157.246C447.854 161.691 445.396 162.742 440.365 162.742C435.334 162.742 432.992 161.458 432.992 157.246V116.54C432.992 111.74 429.012 107.999 416.028 107.999H409.475C396.375 107.999 391.692 111.74 391.692 116.54V157.246C391.692 161.691 389.234 162.742 384.203 162.742C379.172 162.742 376.837 161.691 376.837 157.246V116.54C376.837 102.852 387.951 96.1826 406.901 96.1826H418.479C428.186 96.1826 435.675 98.1692 440.351 102.033C445.151 98.1692 452.516 96.1826 462.34 96.1826H473.918C492.868 96.1826 503.982 102.852 503.982 116.54V157.246C503.982 161.691 501.524 162.742 496.616 162.742C491.708 162.742 489.127 161.691 489.127 157.246H489.155Z" fill="white"/>
<path d="M617.591 101.217V141.924C617.591 155.611 606.477 162.281 584.489 162.281H556.527C534.538 162.281 523.425 155.611 523.425 141.924V101.217C523.425 96.773 525.882 95.7217 530.914 95.7217C535.945 95.7217 538.286 96.773 538.286 101.217V141.924C538.286 146.723 543.898 150.464 557.005 150.464H584.024C597.125 150.464 602.743 146.723 602.743 141.924V101.217C602.743 96.773 605.2 95.7217 610.232 95.7217C615.263 95.7217 617.598 96.773 617.598 101.217H617.591Z" fill="white"/>
<path d="M676.428 96.1826C679.937 96.1826 680.64 98.2852 680.64 102.149C680.64 106.013 679.937 107.999 676.428 107.999H667.301C655.723 107.999 651.859 111.044 651.859 116.423V157.246C651.859 161.691 649.402 162.742 644.371 162.742C639.34 162.742 636.998 161.691 636.998 157.246V116.423C636.998 102.968 647.763 96.1894 667.294 96.1894H676.422L676.428 96.1826Z" fill="white"/>
<path d="M713.04 162.274C691.051 162.274 679.938 155.488 679.938 141.917V135.718C679.938 122.031 691.051 115.361 713.04 115.361H763.106V115.245C763.106 110.801 757.494 107.996 744.387 107.996H733.39C729.881 107.996 729.062 106.009 729.062 102.145C729.062 98.2813 729.881 96.1787 733.39 96.1787H744.852C766.84 96.1787 777.954 102.848 777.954 116.536V141.917C777.954 155.488 766.84 162.274 744.852 162.274H713.033H713.04ZM763.106 141.917V126.707H713.511C700.41 126.707 694.792 130.448 694.792 135.247V141.917C694.792 146.593 700.404 150.457 713.511 150.457H744.394C757.494 150.457 763.113 146.593 763.113 141.917H763.106Z" fill="#C92127"/>
<path d="M804.632 77C811.185 77 813.875 79.2255 813.875 84.2498C813.875 89.2742 811.185 91.4997 804.632 91.4997C798.078 91.4997 795.389 89.281 795.389 84.2498C795.389 79.2186 798.078 77 804.632 77ZM812.121 157.247C812.121 161.691 809.663 162.742 804.632 162.742C799.601 162.742 797.259 161.691 797.259 157.247V102.033C797.259 97.589 799.717 96.5377 804.632 96.5377C809.547 96.5377 812.121 97.589 812.121 102.033V157.247Z" fill="#C92127"/>
</g>
<g clip-path="url(#clip1_461_1426)">
<path d="M219.001 101.193L219.001 101.193C231.641 106.033 237.971 120.203 233.132 132.843L233.132 132.844L179.768 272.285L141.274 220.669L182.329 113.398C187.169 100.758 201.34 94.428 213.98 99.2678L219.001 101.193Z" fill="#C92127" stroke="#C92127"/>
<path d="M54.2841 160.599L54.7511 160.777C45.6614 184.532 57.5595 211.157 81.3076 220.247L81.1287 220.714C81.1287 220.714 81.1288 220.714 81.1288 220.714C84.9508 222.178 88.8459 223.105 92.7299 223.522C78.0884 228.444 61.7031 228.498 46.1554 222.547C46.1553 222.547 46.1553 222.547 46.1553 222.547L46.1545 222.547L46.1513 222.546L46.1377 222.541L46.0826 222.519C46.0337 222.5 45.9608 222.471 45.8656 222.433C45.6751 222.358 45.3956 222.245 45.0411 222.097C44.332 221.802 43.3233 221.368 42.1279 220.815C39.7352 219.709 36.6027 218.131 33.6282 216.236C23.1273 209.538 1.15298 189.924 0.514565 160.924L0.51456 160.924C0.385605 155.182 1.01588 145.261 6.38747 133.532L6.39413 133.517L6.39984 133.502L57.0996 1.0256L95.5993 52.6502L54.2841 160.599Z" fill="#C92127" stroke="#C92127"/>
<path d="M157.689 106.719L157.689 106.719L128.899 181.936L128.899 181.936C127.1 186.642 123.992 190.481 120.166 193.187L120.166 193.187C113.707 197.759 105.175 199.114 97.2411 196.08L92.2206 194.156L92.2205 194.155C79.5802 189.316 73.25 175.145 78.0967 162.491L78.0968 162.491L109.768 79.7309C110.574 77.7676 111.934 74.8671 114.144 71.724L114.144 71.7238C120.466 62.7249 128.805 58.6894 136.481 54.9814C141.012 52.7944 147.475 49.7306 156.713 48.1469C164.05 46.8889 171.455 46.848 178.664 47.9429L178.664 47.9429C199.685 51.1325 218.943 63.9648 229.518 84.2634C230.135 85.454 230.72 86.6515 231.265 87.856C217.268 75.9944 196.94 73.0835 179.652 82.0963C169.155 87.5594 161.614 96.4716 157.689 106.719Z" fill="#C92127" stroke="#C92127"/>
</g>
<defs>
<clipPath id="clip0_461_1426">
<rect width="582" height="144" fill="white" transform="translate(247 77)"/>
</clipPath>
<clipPath id="clip1_461_1426">
<rect width="235" height="273" fill="white"/>
</clipPath>
</defs>
</svg>
