<svg width="648" height="648" viewBox="0 0 648 648" fill="none" xmlns="http://www.w3.org/2000/svg">
<circle cx="324" cy="324" r="320" fill="#0B0A0A" stroke="#C92127" stroke-width="8"/>
<g clip-path="url(#clip0_488_2502)">
<path d="M464.807 275.04L464.807 275.04C482.496 281.833 491.357 301.724 484.583 319.468L485.05 319.647L484.583 319.468L410.201 514.406L356.36 441.997L413.526 292.188C420.3 274.445 440.132 265.561 457.82 272.354L464.807 275.04Z" fill="#C92127" stroke="#C92127"/>
<path d="M235.718 358.203L236.186 358.382L235.718 358.203C222.972 391.613 239.656 429.06 272.959 441.844C278.557 443.995 284.267 445.313 289.953 445.842C269.322 453.015 246.138 453.212 224.155 444.773L224.154 444.772L224.149 444.771L224.13 444.763L224.053 444.733C224.022 444.721 223.984 444.706 223.939 444.688C223.885 444.667 223.822 444.642 223.749 444.613C223.484 444.507 223.094 444.349 222.599 444.142C221.611 443.729 220.205 443.123 218.539 442.351C215.205 440.805 210.837 438.598 206.688 435.947C192.055 426.585 161.411 399.162 160.52 358.591L160.52 358.59C160.34 350.556 161.22 336.678 168.71 320.275L168.717 320.26L168.723 320.245L239.398 135.027L293.247 207.448L235.718 358.203Z" fill="#C92127" stroke="#C92127"/>
<path d="M379.604 283.007L379.604 283.007L339.543 387.981L339.543 387.981C337.025 394.587 332.676 399.976 327.321 403.773L327.321 403.773C318.282 410.19 306.343 412.093 295.24 407.834L288.254 405.148L288.253 405.148C270.564 398.355 261.704 378.464 268.487 360.701L268.487 360.701L312.556 245.204C312.557 245.202 312.557 245.2 312.558 245.198C313.683 242.449 315.582 238.386 318.669 233.983L318.669 233.983C327.498 221.377 339.147 215.727 349.826 210.553C356.136 207.499 365.148 203.213 378.03 200.998L377.945 200.506L378.03 200.998C388.261 199.239 398.586 199.182 408.637 200.713L408.713 200.218L408.637 200.713C437.947 205.173 464.799 223.118 479.544 251.506C480.54 253.434 481.479 255.376 482.337 257.332C462.902 240.353 434.33 236.065 410.073 248.749C395.511 256.35 385.05 268.75 379.604 283.007Z" fill="#C92127" stroke="#C92127"/>
</g>
<defs>
<clipPath id="clip0_488_2502">
<rect width="327" height="381" fill="white" transform="translate(160 134)"/>
</clipPath>
</defs>
</svg>
